<?xml version="1.0" encoding="utf-8"?>
<!-- Generator: Adobe Illustrator 24.0.0, SVG Export Plug-In . SVG Version: 6.00 Build 0)  -->
<svg version="1.1" xmlns="http://www.w3.org/2000/svg" xmlns:xlink="http://www.w3.org/1999/xlink" x="0px" y="0px"
	 viewBox="0 0 64 64" enable-background="new 0 0 64 64" xml:space="preserve">
<g id="Captions">
</g>
<g id="Icons">
	<g>
		<g>
			<polygon fill="#FAB400" points="16,38 16,50 8,50 8,38 4,38 4,60 20,60 20,38 			"/>
		</g>
		<g>
			<polygon fill="#C80A50" points="12,30 8,40 16,40 			"/>
		</g>
		<g>
			<circle fill="#00A0C8" cx="12" cy="31" r="1"/>
		</g>
		<g>
			<polygon fill="#0A5078" points="52,30 48,40 56,40 			"/>
		</g>
		<g>
			<circle fill="#00A0C8" cx="52" cy="31" r="1"/>
		</g>
		<g>
			<polygon fill="#00A0C8" points="32,30 28,40 36,40 			"/>
		</g>
		<g>
			<g>
				<path fill="#0A5078" d="M33,36h-2c-2.761,0-5,2.239-5,5v10c0,0.552,0.448,1,1,1h10c0.552,0,1-0.448,1-1V41
					C38,38.239,35.761,36,33,36z"/>
			</g>
			<g>
				<path fill="#C80A50" d="M36,38v12h-8c-2.209,0-4,1.791-4,4v6h16V38H36z"/>
			</g>
			<g>
				<rect x="30" y="50" fill="#00A0C8" width="4" height="10"/>
			</g>
			<g>
				<path fill="#D2AA82" d="M32,52L32,52c-1.105,0-2-0.895-2-2v-3h4v3C34,51.105,33.105,52,32,52z"/>
			</g>
			<g>
				<path fill="#F0C8A0" d="M33,48h-2c-1.657,0-3-1.343-3-3v-3c0-1.105,0.895-2,2-2h1v0c0,1.105,0.895,2,2,2h3v3
					C36,46.657,34.657,48,33,48z"/>
			</g>
		</g>
		<g>
			<g>
				<rect x="11" y="50" fill="#00A0C8" width="2" height="10"/>
			</g>
			<g>
				<path fill="#D2AA82" d="M12,52L12,52c-1.105,0-2-0.895-2-2v-3h4v3C14,51.105,13.105,52,12,52z"/>
			</g>
			<g>
				<path fill="#F0C8A0" d="M13,48h-2c-1.657,0-3-1.343-3-3v-3c0-1.105,0.895-2,2-2h4c1.105,0,2,0.895,2,2v3
					C16,46.657,14.657,48,13,48z"/>
			</g>
			<g>
				<path fill="#0A5078" d="M14,40h-4c-1.105,0-2,0.895-2,2v0v-2c0-1.105,0.895-2,2-2h4c1.105,0,2,0.895,2,2v2v0
					C16,40.895,15.105,40,14,40z"/>
			</g>
		</g>
		<g>
			<path fill="#F0C8A0" d="M8,35v-1c0-1.105-0.895-2-2-2s-2,0.895-2,2v4h4v-1c0.552,0,1-0.448,1-1C9,35.448,8.552,35,8,35z"/>
		</g>
		<g>
			<path fill="#F0C8A0" d="M18,32c-1.105,0-2,0.895-2,2v1c-0.552,0-1,0.448-1,1c0,0.552,0.448,1,1,1v1h4v-4
				C20,32.895,19.105,32,18,32z"/>
		</g>
		<g>
			<path fill="#F0C8A0" d="M38,32c-1.105,0-2,0.895-2,2v1c-0.552,0-1,0.448-1,1c0,0.552,0.448,1,1,1v1h4v-4
				C40,32.895,39.105,32,38,32z"/>
		</g>
		<g>
			<g>
				<path fill="#00A0C8" d="M57,50h-9V38h-4v22h16v-7C60,51.343,58.657,50,57,50z"/>
			</g>
			<g>
				<rect x="51" y="50" fill="#0A5078" width="2" height="10"/>
			</g>
			<g>
				<path fill="#D2AA82" d="M52,52L52,52c-1.105,0-2-0.895-2-2v-3h4v3C54,51.105,53.105,52,52,52z"/>
			</g>
			<g>
				<path fill="#F0C8A0" d="M53,48h-2c-1.657,0-3-1.343-3-3v-3c0-1.105,0.895-2,2-2h4c1.105,0,2,0.895,2,2v3
					C56,46.657,54.657,48,53,48z"/>
			</g>
			<g>
				<path fill="#DC9600" d="M54,40h-4c-1.105,0-2,0.895-2,2v0v-2c0-1.105,0.895-2,2-2h4c1.105,0,2,0.895,2,2v2v0
					C56,40.895,55.105,40,54,40z"/>
			</g>
		</g>
		<g>
			<path fill="#F0C8A0" d="M48,35v-1c0-1.105-0.895-2-2-2s-2,0.895-2,2v4h4v-1c0.552,0,1-0.448,1-1C49,35.448,48.552,35,48,35z"/>
		</g>
		<g>
			<path fill="#C80A50" d="M12.383,25.596L6,24l6-6l1.596,6.383C13.779,25.115,13.115,25.779,12.383,25.596z"/>
		</g>
		<g>
			<path fill="#FAB400" d="M18.383,19.596L12,18l6-6l1.596,6.383C19.779,19.115,19.115,19.779,18.383,19.596z"/>
		</g>
		<g>
			<path fill="#C80A50" d="M24.383,13.596L18,12l6-6l1.596,6.383C25.779,13.115,25.115,13.779,24.383,13.596z"/>
		</g>
		<g>
			<path fill="#00A0C8" d="M6,25c-0.256,0-0.512-0.098-0.707-0.293c-0.391-0.391-0.391-1.023,0-1.414l18-18
				c0.391-0.391,1.023-0.391,1.414,0s0.391,1.023,0,1.414l-18,18C6.512,24.902,6.256,25,6,25z"/>
		</g>
		<g>
			<path fill="#FAB400" d="M51.617,25.596L58,24l-6-6l-1.596,6.383C50.221,25.115,50.885,25.779,51.617,25.596z"/>
		</g>
		<g>
			<path fill="#C80A50" d="M45.617,19.596L52,18l-6-6l-1.596,6.383C44.221,19.115,44.885,19.779,45.617,19.596z"/>
		</g>
		<g>
			<path fill="#FAB400" d="M39.617,13.596L46,12l-6-6l-1.596,6.383C38.221,13.115,38.885,13.779,39.617,13.596z"/>
		</g>
		<g>
			<path fill="#00A0C8" d="M58,25c-0.256,0-0.512-0.098-0.707-0.293l-18-18c-0.391-0.391-0.391-1.023,0-1.414s1.023-0.391,1.414,0
				l18,18c0.391,0.391,0.391,1.023,0,1.414C58.512,24.902,58.256,25,58,25z"/>
		</g>
		<g>
			<circle fill="#C80A50" cx="32" cy="31" r="1"/>
		</g>
		<g>
			<circle fill="#C80A50" cx="30" cy="18" r="2"/>
		</g>
		<g>
			<circle fill="#FAB400" cx="41" cy="23" r="1"/>
		</g>
		<g>
			<circle fill="#00A0C8" cx="25" cy="31" r="1"/>
		</g>
	</g>
</g>
</svg>
